<svg height="512" viewBox="0 0 128 128" width="512" xmlns="http://www.w3.org/2000/svg"><g><g><path d="m35.344 18.518h57.311v37.402h-57.311z" fill="#01ebcd"/><path d="m61.127 24.391h31.401v25.655h-31.401z" fill="#00c5ca" transform="matrix(0 1 -1 0 114.046 -39.609)"/><path d="m52.718 17.177h22.565v40.083h-22.565z" fill="#f1f3f8" transform="matrix(0 1 -1 0 101.218 -26.782)"/><path d="m40.5 67.5h47a0 0 0 0 1 0 0v18.482a23.5 23.5 0 0 1 -23.5 23.5 23.5 23.5 0 0 1 -23.5-23.5v-18.482a0 0 0 0 1 0 0z" fill="#01ebcd"/><path d="m58.21 55.919h11.581v11.581h-11.581z" fill="#c1d3ed"/><path d="m48.7 67.5h30.6a0 0 0 0 1 0 0v18.032a15.3 15.3 0 0 1 -15.3 15.3 15.3 15.3 0 0 1 -15.3-15.3v-18.032a0 0 0 0 1 0 0z" fill="#f1f3f8"/><g fill="#b373f0"><path d="m55.844 41.531a1.749 1.749 0 0 1 -1.75-1.75v-5.125a1.75 1.75 0 0 1 3.5 0v5.125a1.749 1.749 0 0 1 -1.75 1.75z"/><path d="m72.156 41.531a1.749 1.749 0 0 1 -1.75-1.75v-5.125a1.75 1.75 0 0 1 3.5 0v5.125a1.749 1.749 0 0 1 -1.75 1.75z"/></g></g><g><path d="m50.375 20.268h.708a1.75 1.75 0 0 0 0-3.5h-.708a1.75 1.75 0 0 0 0 3.5z"/><path d="m84.042 44.625a1.749 1.749 0 0 0 1.75-1.75v-16.939a1.749 1.749 0 0 0 -1.75-1.75h-40.084a1.749 1.749 0 0 0 -1.75 1.75v22.564a1.749 1.749 0 0 0 1.75 1.75h40.084a1.75 1.75 0 0 0 0-3.5h-38.334v-19.064h36.584v15.189a1.749 1.749 0 0 0 1.75 1.75z"/><path d="m75.975 104.142q-.528.35-1.078.668a1.75 1.75 0 0 0 1.754 3.029q.641-.37 1.255-.777a1.75 1.75 0 0 0 -1.931-2.92z"/><path d="m54.094 34.656v5.125a1.75 1.75 0 0 0 3.5 0v-5.125a1.75 1.75 0 0 0 -3.5 0z"/><path d="m70.406 34.656v5.125a1.75 1.75 0 1 0 3.5 0v-5.125a1.75 1.75 0 0 0 -3.5 0z"/><path d="m27.232 82.25c-.19 0-.377.018-.565.029v-3.307a6.062 6.062 0 0 1 6.055-6.055h2.623a1.75 1.75 0 0 0 0-3.5h-2.623a9.565 9.565 0 0 0 -9.555 9.555v4.1a10.465 10.465 0 0 0 4.065 20.107 1.75 1.75 0 0 0 0-3.5 6.965 6.965 0 1 1 6.968-6.965 1.75 1.75 0 0 0 3.5 0 10.476 10.476 0 0 0 -10.468-10.464z"/><path d="m104.833 83.072v-4.1a9.565 9.565 0 0 0 -9.555-9.555h-6.028v-1.917a1.749 1.749 0 0 0 -1.75-1.75h-15.96v-8.081h21.115a1.749 1.749 0 0 0 1.75-1.75v-37.4a1.749 1.749 0 0 0 -1.75-1.75h-35.322a1.75 1.75 0 0 0 0 3.5h33.572v33.9h-53.805v-33.9h6.863a1.75 1.75 0 0 0 0-3.5h-8.618a1.749 1.749 0 0 0 -1.75 1.75v37.4a1.749 1.749 0 0 0 1.75 1.75h32.7v8.081h-8.085v-4.75a1.75 1.75 0 0 0 -3.5 0v4.75h-15.96a1.749 1.749 0 0 0 -1.75 1.75v18.482a25.272 25.272 0 0 0 31.471 24.478 1.75 1.75 0 0 0 -.86-3.393 21.771 21.771 0 0 1 -27.111-21.085v-16.732h4.7v16.281a17.046 17.046 0 0 0 34.092 0v-11.7a1.75 1.75 0 0 0 -3.5 0v11.7a13.546 13.546 0 0 1 -27.092 0v-16.281h35.3v16.732a21.787 21.787 0 0 1 -4.888 13.739 1.751 1.751 0 0 0 2.713 2.213 25.314 25.314 0 0 0 5.675-15.952v-13.065h6.028a6.062 6.062 0 0 1 6.055 6.055v3.307c-.188-.011-.375-.029-.565-.029a10.476 10.476 0 0 0 -10.468 10.464 1.75 1.75 0 0 0 3.5 0 6.964 6.964 0 1 1 6.964 6.965 1.75 1.75 0 0 0 0 3.5 10.465 10.465 0 0 0 4.065-20.107z"/></g></g></svg>